<svg xmlns="http://www.w3.org/2000/svg" viewBox="0 0 64 64" role="img" aria-labelledby="title">
  <title>Apollo rocket icon</title>
  <rect width="64" height="64" rx="14" fill="#1f2427"/>
  <path d="M39.7 8.9c-6.1 2.2-11.5 7.2-16.1 14.8l-8.2 1.1c-1 .1-1.8.8-2.2 1.7l-3 7.2c-.4 1 .5 2 1.5 1.7l7.7-2.1 11.4 11.4-2.1 7.7c-.3 1 .7 1.9 1.7 1.5l7.2-3c.9-.4 1.6-1.2 1.7-2.2l1.1-8.2c7.6-4.6 12.6-10 14.8-16.1 1.1-3.1 1.3-6.5.5-10.2-.5-2.5-2.4-4.4-4.9-4.9-3.7-.8-7.1-.6-10.2.5Z" fill="#ff4056"/>
  <path d="M26.2 24.8c4-6.7 8.6-11 13.7-12.8 2.5-.9 5.3-1 8.4-.4 1.5.3 2.6 1.4 2.9 2.9.6 3.1.5 5.9-.4 8.4-1.8 5.1-6.1 9.7-12.8 13.7L26.2 24.8Z" fill="#f3f5f7"/>
  <circle cx="41.1" cy="22.9" r="4.4" fill="#1f2427"/>
  <path d="M17.5 42.7c-3 3-4.5 7.1-4.8 11.2 4.1-.3 8.2-1.8 11.2-4.8 2.1-2.1 3.2-4.5 3.5-7.4-2.9.3-5.3 1.4-7.4 3.5Z" fill="#ffc857"/>
  <path d="M17.9 46.2c-1.4 1.4-2.3 3.3-2.7 5.2 1.9-.4 3.8-1.3 5.2-2.7 1.1-1.1 1.8-2.4 2.1-3.9-1.5.3-2.8 1-3.9 2.1Z" fill="#ff4056"/>
</svg>
